<?xml version="1.0" standalone="no"?>
<!DOCTYPE svg PUBLIC "-//W3C//DTD SVG 20010904//EN"
 "http://www.w3.org/TR/2001/REC-SVG-20010904/DTD/svg10.dtd">
<svg version="1.0" xmlns="http://www.w3.org/2000/svg"
 width="976.000000pt" height="850.000000pt" viewBox="0 0 976.000000 850.000000"
 preserveAspectRatio="xMidYMid meet">

<g transform="translate(0.000000,850.000000) scale(0.100000,-0.100000)"
fill="#000000" stroke="none">
<path d="M2589 8483 c-13 -10 -35 -24 -49 -32 -82 -46 -294 -223 -425 -355
-197 -199 -350 -398 -512 -669 -78 -128 -179 -320 -223 -422 -11 -27 -34 -77
-50 -110 -16 -33 -50 -121 -75 -195 -26 -74 -53 -141 -59 -148 -7 -7 -51 -23
-98 -36 -221 -59 -419 -202 -557 -403 -85 -123 -190 -303 -266 -453 -27 -52
-54 -102 -61 -110 -7 -8 -22 -37 -33 -65 -11 -27 -56 -129 -100 -225 l-81
-175 1 -105 c0 -83 3 -100 11 -82 6 12 15 22 20 22 4 0 8 9 8 19 0 11 16 54
35 97 19 42 35 81 35 86 0 5 20 50 44 101 24 51 63 132 87 182 23 49 48 96 56
103 7 7 13 20 13 28 0 22 39 104 49 104 5 0 14 15 21 33 15 40 63 140 70 147
20 20 64 87 62 94 -2 5 1 12 6 15 4 3 25 32 46 63 20 31 55 76 76 100 22 24
40 46 40 50 0 8 42 57 72 87 10 9 30 28 45 44 14 15 32 27 38 27 7 0 20 9 30
20 10 11 25 20 32 20 8 0 26 9 40 20 14 11 33 20 42 20 9 0 25 7 35 15 11 8
32 15 47 15 14 0 32 7 39 15 15 18 50 20 50 3 0 -7 -6 -51 -14 -98 -22 -134
-70 -477 -82 -583 -7 -60 13 -97 48 -90 14 3 30 14 37 25 13 21 31 112 36 183
4 66 17 139 27 152 5 6 6 32 3 56 -5 29 -3 47 4 51 6 4 11 24 11 45 0 61 38
252 53 270 8 9 17 44 19 79 2 35 10 67 16 71 7 4 14 25 16 47 4 49 30 112 56
136 11 11 20 27 20 38 0 11 6 34 14 52 8 18 24 58 36 88 22 56 131 281 140
290 10 10 30 50 30 61 0 9 34 61 73 114 24 32 57 87 57 95 0 5 11 20 25 34 14
14 25 29 25 34 0 5 7 15 16 22 8 8 21 27 29 44 7 17 34 54 59 81 25 28 46 55
46 60 0 6 8 18 18 27 9 8 26 28 37 42 11 14 59 67 108 117 48 50 87 95 87 100
0 5 4 9 8 9 5 0 32 23 60 50 28 28 56 50 62 50 5 0 10 4 10 9 0 6 11 16 24 23
27 15 123 89 175 135 20 18 41 33 46 33 6 0 21 9 35 20 14 11 35 20 48 20 12
0 22 4 22 9 0 5 21 23 47 40 l46 31 -85 0 c-65 0 -91 -4 -109 -17z"/>
<path d="M4615 8481 c22 -10 46 -26 54 -35 7 -9 23 -16 35 -16 11 0 48 -16 81
-34 33 -19 99 -55 147 -81 67 -36 88 -52 93 -73 4 -15 9 -22 12 -15 5 13 67
-22 114 -64 14 -13 30 -23 37 -23 7 0 12 -7 12 -16 0 -9 15 -33 34 -54 35 -39
128 -190 140 -228 4 -12 11 -22 15 -22 8 0 21 -30 66 -145 58 -150 75 -213 87
-325 4 -30 -19 -37 -47 -15 -57 44 -168 108 -350 203 -68 35 -248 110 -285
117 -19 4 -48 14 -65 21 -43 18 -193 64 -213 64 -9 1 -35 8 -57 16 -46 18 -50
19 -205 33 -149 14 -465 14 -555 0 -38 -6 -86 -12 -105 -14 -19 -1 -61 -10
-93 -19 -32 -9 -69 -16 -82 -16 -14 0 -25 -4 -25 -10 0 -5 -8 -10 -18 -10 -10
0 -22 -4 -27 -9 -6 -4 -56 -23 -112 -40 -57 -18 -103 -35 -103 -40 0 -4 -24
-15 -52 -26 -29 -10 -62 -24 -73 -31 -11 -6 -34 -15 -52 -19 -17 -3 -34 -13
-37 -21 -3 -8 -12 -14 -19 -14 -8 0 -20 -7 -27 -14 -6 -8 -34 -22 -61 -31 -27
-9 -49 -20 -49 -24 0 -15 -79 -61 -104 -61 -18 0 -24 -4 -20 -15 4 -10 -6 -20
-30 -32 -20 -9 -36 -23 -36 -30 0 -7 -6 -13 -14 -13 -19 0 -25 -29 -12 -57 7
-17 18 -23 42 -23 18 0 35 4 38 9 9 14 124 91 136 91 5 0 10 4 10 8 0 11 73
52 92 52 8 0 23 9 33 20 10 11 28 20 40 20 13 0 25 6 28 13 5 13 54 39 167 89
25 11 73 33 108 49 35 16 73 29 85 29 12 0 54 11 92 25 100 37 135 43 347 65
179 19 200 19 376 4 169 -13 246 -25 367 -55 22 -6 54 -13 72 -16 18 -3 38
-11 44 -19 6 -8 26 -14 43 -14 17 0 75 -20 128 -44 53 -24 99 -41 102 -39 6 6
319 -150 354 -177 40 -31 102 -70 111 -70 4 0 16 -9 26 -20 10 -11 26 -20 36
-20 10 0 38 -21 61 -47 84 -92 193 -196 248 -236 25 -18 25 -18 -25 -11 -27 4
-90 10 -140 15 -49 5 -103 11 -120 14 -68 14 -380 26 -520 20 -277 -10 -370
-16 -380 -24 -5 -5 -37 -12 -70 -15 -33 -4 -91 -13 -130 -21 -38 -8 -88 -15
-110 -16 -23 -2 -47 -10 -56 -21 -11 -12 -31 -18 -63 -18 -25 0 -46 -4 -46
-10 0 -5 -9 -10 -20 -10 -11 0 -28 -5 -38 -10 -29 -17 -136 -52 -159 -52 -13
0 -23 -4 -23 -9 0 -4 -19 -13 -42 -20 -60 -16 -98 -33 -98 -41 0 -5 -10 -8
-23 -8 -13 0 -39 -13 -57 -30 -18 -16 -37 -30 -42 -30 -10 0 -30 -15 -63 -47
-12 -13 -29 -23 -36 -23 -8 0 -41 -20 -74 -44 -33 -25 -61 -43 -63 -41 -2 2
-22 -10 -45 -26 -22 -16 -47 -29 -56 -29 -9 0 -25 -6 -36 -13 -11 -8 -42 -22
-70 -32 -27 -9 -59 -21 -70 -26 -47 -20 -112 -39 -137 -39 -14 0 -28 -5 -30
-10 -2 -6 -29 -11 -61 -12 -31 -1 -57 -6 -57 -10 0 -4 -18 -11 -39 -14 -28 -5
-42 -13 -50 -31 -24 -53 37 -74 139 -48 36 9 89 21 119 26 30 5 75 18 100 29
25 10 73 26 106 36 50 14 127 48 195 86 8 4 31 16 50 26 19 9 43 25 53 35 10
10 25 16 33 13 8 -3 21 5 30 19 9 14 23 25 30 25 8 0 14 4 14 8 0 5 17 17 38
28 20 10 39 22 42 26 21 27 87 68 110 68 16 0 30 7 34 15 3 8 13 15 23 15 10
0 29 6 43 13 14 7 45 19 70 26 25 8 90 29 145 47 55 18 126 35 158 39 31 4 57
11 57 15 0 4 15 10 33 13 17 4 66 13 107 22 41 8 100 20 130 26 94 19 711 22
885 5 169 -18 264 -31 315 -45 19 -5 69 -15 110 -22 82 -13 122 -29 142 -56 7
-10 42 -37 78 -60 97 -62 109 -77 108 -132 0 -47 -14 -67 -33 -51 -22 18 -157
69 -170 64 -7 -3 -28 3 -47 12 -18 10 -69 28 -113 40 -44 12 -93 27 -110 32
-16 6 -64 16 -105 21 -41 5 -100 15 -130 21 -172 35 -383 55 -570 54 -166 -1
-196 -5 -482 -53 -29 -5 -68 -14 -87 -20 -19 -6 -38 -8 -44 -4 -5 3 -12 1 -16
-5 -3 -5 -55 -27 -116 -47 -60 -20 -121 -43 -135 -50 -14 -7 -56 -28 -95 -47
-38 -18 -72 -35 -75 -38 -3 -3 -24 -12 -47 -20 -24 -7 -43 -16 -43 -20 0 -4
-12 -13 -27 -21 -15 -8 -40 -26 -56 -41 -16 -15 -43 -30 -60 -34 -38 -8 -69
-24 -80 -41 -4 -7 -15 -13 -22 -13 -8 0 -15 -4 -15 -9 0 -5 -15 -15 -34 -21
-19 -6 -36 -14 -38 -18 -2 -4 -34 -20 -73 -35 -38 -16 -89 -37 -113 -48 -23
-10 -50 -19 -60 -19 -10 0 -27 -6 -38 -14 -11 -8 -35 -16 -54 -18 -19 -1 -38
-7 -41 -12 -15 -21 -156 -37 -364 -42 -121 -3 -224 -10 -229 -15 -6 -5 -16 -9
-24 -9 -20 0 -35 -20 -56 -75 -31 -82 -31 -99 0 -159 16 -31 31 -56 35 -56 4
0 14 -6 21 -13 44 -42 74 -50 203 -60 71 -5 148 -9 170 -8 48 1 138 -16 180
-34 17 -7 56 -36 88 -65 31 -28 57 -48 57 -44 0 4 8 0 18 -8 9 -9 27 -19 38
-22 12 -4 33 -17 47 -30 14 -13 46 -33 71 -46 25 -12 46 -26 46 -31 0 -5 9 -9
19 -9 11 0 23 -5 26 -10 4 -6 25 -20 48 -32 23 -11 49 -28 57 -37 8 -9 31 -22
50 -28 19 -6 58 -20 85 -31 28 -11 66 -26 85 -33 19 -7 67 -27 105 -44 39 -18
104 -42 145 -54 41 -12 88 -29 103 -37 16 -8 40 -14 53 -14 13 0 24 -4 24 -10
0 -5 20 -10 44 -10 27 0 46 -5 49 -13 4 -10 18 -12 54 -7 26 3 82 2 123 -2
151 -16 545 -21 570 -8 13 7 93 16 184 20 99 6 182 15 216 26 49 15 137 33
243 50 20 4 37 10 37 14 0 8 91 30 126 30 13 0 24 4 24 9 0 6 26 17 58 27 58
17 85 27 112 43 37 21 112 51 130 51 10 0 22 5 26 11 11 18 86 49 121 49 30 0
31 -2 38 -48 5 -40 2 -55 -17 -88 -12 -21 -32 -46 -43 -55 -11 -9 -40 -36 -65
-61 -25 -24 -61 -50 -80 -58 -19 -8 -44 -22 -55 -33 -25 -22 -38 -25 -159 -30
-54 -2 -101 -9 -105 -14 -8 -12 -86 -43 -109 -43 -9 0 -28 -6 -42 -13 -75 -38
-87 -39 -700 -34 -575 4 -734 12 -783 39 -11 5 -44 12 -75 14 -31 3 -63 9 -71
14 -9 4 -43 13 -75 19 -32 6 -93 24 -135 40 -42 16 -96 35 -121 42 -25 7 -82
30 -127 51 -45 21 -87 38 -94 38 -7 0 -82 34 -168 76 -129 63 -160 75 -181 67
-30 -10 -39 -55 -17 -78 19 -18 236 -124 340 -165 43 -16 99 -41 125 -54 26
-13 65 -27 86 -30 37 -7 130 -40 203 -72 17 -8 44 -14 61 -14 16 0 64 -11 106
-25 42 -14 95 -25 116 -25 22 0 48 -4 58 -9 42 -23 303 -35 786 -35 451 -1
511 1 596 18 52 10 114 22 138 26 23 4 48 14 55 22 20 26 86 41 168 39 74 -2
79 -1 174 50 54 28 108 61 119 73 69 69 85 79 101 66 9 -7 15 -8 15 -2 0 6 -5
12 -12 14 -8 3 -8 9 0 24 6 10 12 15 12 10 0 -16 80 112 80 129 0 16 30 21 46
6 8 -8 120 -31 224 -47 25 -3 50 -10 55 -14 6 -4 75 -13 155 -19 80 -7 179
-19 220 -27 113 -20 308 -36 365 -29 28 4 81 1 118 -5 74 -12 349 2 397 21 14
5 70 11 125 13 55 2 113 9 128 15 16 6 55 11 88 11 33 0 88 6 122 14 79 18
210 36 263 36 24 0 47 6 53 14 7 8 31 16 54 19 23 3 62 10 87 17 120 32 157
43 185 52 17 5 62 19 100 29 124 35 132 33 121 -27 -5 -25 -13 -35 -31 -40
-13 -3 -29 -12 -36 -20 -6 -8 -21 -14 -34 -14 -12 0 -35 -11 -51 -25 -16 -14
-39 -25 -50 -25 -12 0 -27 -7 -34 -15 -7 -9 -21 -13 -31 -10 -11 4 -19 2 -19
-2 0 -5 -16 -15 -34 -21 -19 -7 -38 -22 -41 -32 -4 -11 -11 -20 -16 -20 -5 0
-9 -7 -9 -15 0 -8 -4 -23 -9 -33 -5 -9 -24 -47 -42 -84 -31 -62 -40 -73 -61
-69 -5 0 -8 -7 -8 -18 0 -10 -9 -21 -20 -24 -11 -3 -20 -12 -20 -21 0 -9 -7
-16 -16 -16 -9 0 -24 -8 -33 -17 -20 -22 -77 -63 -88 -63 -4 0 -21 -11 -37
-25 -16 -14 -35 -25 -43 -25 -7 0 -16 -7 -19 -15 -4 -8 -15 -15 -25 -15 -10 0
-19 -4 -19 -10 0 -5 -21 -10 -46 -10 -54 0 -134 -19 -134 -31 0 -5 -8 -9 -18
-9 -10 0 -28 -7 -40 -16 -13 -9 -34 -14 -48 -11 -14 2 -43 -4 -64 -14 -22 -11
-50 -19 -63 -19 -12 0 -27 -4 -32 -9 -6 -6 -53 -15 -105 -21 -52 -6 -104 -15
-115 -19 -42 -19 -250 -32 -500 -32 -243 -1 -263 0 -308 20 -27 12 -54 21 -60
21 -25 0 -167 63 -161 71 3 5 -4 9 -16 9 -11 0 -37 8 -58 19 -53 26 -132 36
-156 18 -14 -10 -17 -21 -12 -40 3 -15 12 -27 19 -27 6 0 59 -23 117 -51 58
-28 128 -59 155 -69 28 -9 73 -25 100 -35 28 -9 63 -23 78 -31 16 -8 37 -14
48 -14 10 0 19 -7 19 -15 0 -8 8 -15 18 -15 18 0 74 -35 146 -90 62 -47 126
-34 126 26 0 18 -10 31 -35 45 -33 20 -44 31 -27 27 4 0 14 2 22 5 21 8 221
27 292 27 33 0 78 4 101 9 54 12 171 31 220 35 21 2 43 8 50 15 6 6 33 11 61
11 27 0 64 5 82 12 37 13 109 -4 118 -29 3 -7 17 -18 32 -23 14 -6 28 -18 31
-28 2 -10 18 -26 34 -36 16 -9 29 -21 29 -25 0 -5 44 -53 98 -107 53 -55 118
-128 145 -164 26 -36 54 -74 62 -85 8 -10 15 -25 15 -32 0 -7 4 -13 9 -13 6 0
24 -29 40 -64 17 -35 38 -69 46 -76 8 -7 15 -24 15 -39 0 -14 11 -53 25 -86
26 -64 31 -90 15 -80 -20 12 -9 -12 15 -35 14 -14 25 -33 24 -45 -1 -11 1 -27
4 -35 6 -14 11 -53 23 -166 5 -45 3 -54 -17 -73 -13 -11 -33 -21 -46 -21 -13
0 -23 -4 -23 -10 0 -5 -9 -10 -21 -10 -11 0 -45 -13 -75 -30 -30 -16 -54 -27
-54 -23 0 3 -7 0 -15 -7 -8 -7 -24 -10 -36 -7 -12 3 -36 -3 -55 -14 -19 -10
-41 -19 -49 -19 -8 0 -15 -4 -15 -10 0 -5 -19 -14 -41 -20 -23 -6 -50 -17 -61
-23 -15 -10 -21 -9 -29 3 -8 13 -12 12 -26 -7 -12 -18 -25 -23 -60 -23 -24 0
-54 -6 -66 -14 -18 -11 -62 -24 -112 -31 -13 -2 -45 -14 -67 -25 -9 -5 -58
-12 -108 -16 -56 -4 -97 -12 -105 -21 -8 -7 -33 -14 -57 -16 -24 -1 -45 -5
-48 -9 -9 -11 -159 -28 -256 -28 -60 0 -94 -4 -94 -11 0 -18 -937 -1 -1080 20
-124 19 -225 30 -268 30 -24 1 -52 6 -63 12 -11 6 -50 12 -87 15 -37 2 -110 8
-162 14 -52 5 -113 11 -134 12 -22 2 -41 9 -44 16 -2 8 -26 12 -73 12 -39 0
-69 4 -69 10 0 6 -28 10 -64 10 -36 0 -68 5 -71 11 -4 5 -12 8 -18 6 -7 -2
-32 2 -57 9 -25 7 -106 20 -180 28 -74 9 -160 22 -190 30 -30 8 -74 19 -96 25
-23 6 -59 11 -80 11 -22 0 -59 5 -84 11 -25 6 -67 15 -95 20 -27 4 -86 16
-130 24 -44 9 -97 19 -117 22 -21 3 -38 9 -38 14 0 5 -21 9 -48 9 -26 0 -79 7
-117 15 -39 8 -89 15 -112 15 -24 0 -43 5 -45 13 -3 7 -34 14 -84 19 -43 3
-133 12 -199 19 -148 16 -405 16 -505 0 -41 -6 -97 -14 -125 -17 -27 -4 -56
-11 -64 -17 -8 -7 -24 -10 -36 -9 -14 2 -29 -5 -37 -15 -13 -19 -76 -53 -97
-53 -6 0 -11 -4 -11 -10 0 -5 -6 -10 -14 -10 -8 0 -18 -9 -21 -20 -3 -11 -10
-20 -14 -20 -10 0 -70 -50 -95 -79 -12 -13 -31 -33 -43 -44 -13 -12 -23 -25
-23 -30 0 -5 -11 -22 -25 -39 -14 -16 -25 -40 -25 -52 0 -12 -9 -32 -20 -44
-11 -12 -20 -28 -20 -37 0 -24 -20 -56 -31 -50 -18 12 -11 -254 9 -323 10 -35
21 -60 25 -56 4 4 7 2 7 -4 0 -6 6 -17 13 -24 7 -7 23 -28 36 -45 12 -18 28
-33 36 -33 7 0 22 -11 32 -25 39 -54 70 -57 533 -62 234 -2 457 -8 495 -14 39
-5 140 -16 225 -24 185 -18 220 -23 220 -34 0 -4 12 -8 28 -9 53 -1 167 -20
267 -45 33 -9 110 -23 170 -32 61 -9 121 -21 135 -27 26 -11 160 -36 335 -63
55 -9 109 -20 120 -25 11 -4 49 -11 85 -14 36 -4 94 -11 130 -17 36 -5 103
-14 150 -19 47 -5 121 -13 165 -18 44 -6 154 -13 244 -17 91 -4 233 -14 315
-22 83 -8 185 -17 226 -19 480 -25 832 -38 1267 -47 90 -2 166 -6 169 -10 10
-10 -56 -75 -90 -89 -17 -7 -50 -32 -72 -55 -23 -24 -53 -47 -65 -53 -35 -16
-67 -35 -86 -52 -10 -9 -34 -23 -53 -33 -19 -9 -43 -27 -52 -39 -15 -18 -18
-19 -18 -3 0 23 -17 22 -25 -2 -6 -21 -83 -71 -108 -71 -8 0 -20 -7 -27 -15
-7 -8 -20 -15 -30 -15 -10 0 -23 -7 -30 -14 -11 -15 -45 -27 -104 -41 -18 -4
-25 -9 -19 -13 7 -4 -15 -16 -48 -26 -32 -11 -59 -23 -59 -27 0 -4 -16 -10
-35 -13 -19 -4 -35 -10 -35 -14 0 -9 -128 -52 -154 -52 -9 0 -14 -4 -11 -10 3
-5 -3 -10 -15 -10 -12 0 -29 -4 -39 -9 -9 -6 -40 -11 -68 -13 -28 -2 -49 -6
-47 -9 2 -4 -17 -12 -42 -19 -30 -9 -63 -30 -97 -62 -47 -45 -55 -49 -97 -47
-25 1 -55 6 -68 11 -13 4 -42 4 -65 -2 -146 -33 -380 -60 -562 -66 -91 -3
-142 -9 -147 -17 -9 -15 -1285 -17 -1296 -2 -4 6 -79 12 -182 13 -96 2 -179 8
-185 13 -5 5 -56 9 -115 9 -58 1 -125 5 -150 10 -25 5 -110 12 -190 15 -80 4
-161 11 -180 16 -19 4 -71 11 -115 15 -44 3 -84 10 -90 15 -5 5 -44 9 -86 9
-43 0 -80 4 -83 8 -3 5 -38 10 -77 10 -39 1 -77 6 -84 12 -7 6 -70 14 -141 19
-71 5 -178 19 -239 30 -60 12 -124 21 -142 21 -17 0 -35 5 -38 10 -4 6 -18 10
-33 10 -15 -1 -65 6 -112 15 -47 8 -130 22 -184 31 -55 8 -113 22 -130 31 -17
9 -55 19 -86 23 -30 4 -80 18 -110 30 -30 12 -75 26 -100 30 -59 11 -101 22
-180 50 -36 13 -89 31 -118 41 -57 20 -215 84 -244 100 -10 5 -23 9 -28 9 -26
0 -471 218 -500 244 -14 13 -35 27 -47 31 -13 3 -23 12 -23 19 0 7 -11 23 -25
36 -14 13 -25 27 -25 32 0 5 -16 24 -35 42 -19 19 -35 41 -35 49 0 9 -11 24
-25 35 -14 11 -25 24 -25 29 0 5 -9 19 -21 32 -12 12 -25 34 -29 49 -6 20 -9
7 -9 -47 -1 -80 1 -83 120 -240 55 -71 56 -83 13 -130 -33 -37 -41 -41 -85
-41 l-49 0 0 -750 0 -750 3715 0 c2294 0 3715 4 3715 9 0 19 -163 182 -249
249 -101 79 -128 97 -281 188 -116 68 -258 160 -360 232 -65 46 -73 73 -38
126 32 48 77 71 190 94 53 11 116 29 140 40 24 11 72 32 108 45 217 83 515
230 673 333 87 57 135 92 281 204 11 8 40 33 65 55 121 107 104 99 246 114
259 27 432 90 551 203 68 65 121 151 143 236 13 47 2 90 -44 182 -14 27 -25
56 -25 63 0 28 41 66 122 113 223 129 348 275 348 405 0 49 -32 147 -66 200
-26 41 -76 79 -106 79 -33 0 -46 28 -58 132 -21 183 -59 306 -155 515 -79 171
-229 352 -469 570 -42 38 -67 67 -63 75 3 8 35 30 72 49 37 19 77 40 90 47 13
6 46 14 74 16 59 5 143 53 251 144 103 86 154 156 220 302 4 8 47 30 96 50
107 43 227 106 260 137 19 17 24 32 24 70 0 27 -4 62 -9 80 -11 39 -3 51 61
91 26 16 64 51 86 78 21 27 46 55 55 63 14 11 17 33 17 125 0 102 -2 115 -23
144 -13 17 -29 49 -37 71 -12 38 -11 43 13 81 37 55 35 96 -7 151 -33 44 -73
79 -138 122 -32 22 -33 25 -38 102 -3 47 -12 93 -22 110 -33 60 -126 133 -241
190 l-82 40 0 52 c-1 29 -5 57 -10 61 -53 47 -217 174 -310 240 -95 67 -253
137 -510 225 -112 38 -116 42 -135 142 -35 173 -86 314 -182 500 -107 204
-281 401 -450 504 l-82 51 -96 -1 -95 0 63 -29 c34 -17 62 -35 62 -41 0 -6 7
-9 15 -5 15 5 75 -23 75 -36 0 -5 5 -8 11 -8 22 0 151 -114 233 -207 104 -118
106 -120 106 -132 0 -5 10 -22 23 -38 13 -15 45 -71 71 -123 27 -52 52 -97 56
-100 3 -3 13 -27 20 -55 8 -27 24 -74 37 -103 13 -29 23 -60 23 -70 0 -9 7
-35 14 -57 8 -22 17 -67 21 -99 l8 -59 -63 7 c-34 4 -81 15 -103 25 -77 34
-111 40 -232 39 -100 -1 -129 3 -172 20 -28 12 -89 26 -135 33 -109 15 -727
15 -918 0 -80 -7 -179 -14 -220 -17 -41 -3 -84 -9 -95 -15 -11 -5 -42 -11 -70
-14 -58 -6 -292 -42 -347 -54 -47 -10 -74 7 -81 51 -3 18 -11 53 -17 78 -7 25
-14 65 -17 90 -3 24 -11 49 -18 55 -7 5 -16 24 -19 40 -12 48 -174 365 -207
403 -34 38 -33 55 1 60 13 2 29 9 35 15 19 19 46 36 95 60 25 13 71 38 102 55
31 18 63 32 70 32 7 0 31 9 53 19 155 76 196 92 241 100 28 4 70 17 93 29 23
12 52 22 65 22 13 0 29 7 36 15 11 13 -2 15 -109 15 -98 0 -132 -4 -169 -19
-26 -11 -78 -32 -117 -47 -71 -27 -390 -185 -455 -225 l-36 -22 -59 44 c-33
25 -85 61 -115 80 -30 20 -87 56 -126 82 -39 25 -99 59 -132 76 -57 29 -69 31
-159 30 l-98 0 40 -18z m2721 -1120 c71 -6 114 -16 145 -31 39 -20 62 -23 194
-26 126 -2 157 -6 196 -23 61 -27 168 -42 250 -34 51 4 71 2 90 -10 24 -16
143 -57 165 -57 26 0 344 -153 378 -182 29 -24 180 -140 204 -157 12 -8 19
-18 16 -22 -3 -5 4 -14 16 -21 23 -15 27 -38 5 -38 -8 0 -15 4 -15 9 0 5 -10
9 -22 8 -13 0 -79 12 -148 27 -183 41 -218 47 -290 52 -36 2 -87 8 -113 14
-26 5 -74 10 -107 10 -32 0 -92 4 -132 10 -103 14 -439 19 -523 8 -38 -5 -110
-13 -160 -18 -152 -16 -228 -26 -280 -39 -27 -7 -79 -20 -115 -28 -36 -8 -80
-21 -98 -29 -18 -8 -37 -12 -43 -8 -6 3 -21 2 -32 -3 -35 -16 -92 -33 -110
-33 -10 0 -25 -4 -35 -9 -9 -5 -44 -19 -77 -31 -33 -12 -69 -26 -79 -32 -11
-6 -45 -11 -75 -11 -41 0 -49 -2 -31 -7 14 -5 20 -8 13 -9 -7 -1 -37 -12 -67
-26 -30 -14 -62 -25 -71 -25 -18 0 -54 38 -55 57 0 14 -108 103 -148 124 -33
16 -160 112 -223 168 -25 23 -51 41 -57 41 -6 0 -15 6 -19 14 -4 8 -34 35 -65
60 -32 26 -58 54 -58 62 0 7 -5 14 -10 14 -15 0 -110 90 -110 105 0 13 151 41
176 31 9 -3 21 -3 27 1 24 16 83 33 112 33 17 0 68 6 115 14 183 32 301 46
386 47 49 0 112 4 139 7 68 9 616 4 741 -7z m859 -574 c210 -13 275 -20 313
-33 23 -8 65 -14 92 -14 27 0 52 -4 55 -10 3 -5 21 -10 40 -10 19 0 36 -4 39
-8 3 -5 34 -10 68 -11 69 -2 134 -16 143 -31 3 -6 17 -10 31 -10 71 0 164 -40
274 -117 53 -38 110 -108 110 -135 0 -26 -1 -27 -27 -16 -16 7 -37 20 -48 29
-18 16 -112 54 -240 99 -27 9 -72 25 -100 35 -27 10 -65 17 -83 17 -18 -1 -43
3 -55 10 -26 14 -80 27 -162 38 -33 5 -82 13 -110 19 -27 6 -97 13 -155 16
-58 4 -121 11 -140 16 -49 13 -582 12 -616 -1 -15 -6 -79 -11 -143 -11 -71 -1
-108 -4 -96 -9 11 -5 18 -9 15 -10 -3 -1 -41 -7 -85 -15 -44 -8 -100 -18 -125
-24 -74 -16 -152 -30 -210 -40 -30 -5 -73 -16 -95 -24 -54 -19 -130 -37 -160
-37 -14 0 -25 -4 -25 -9 0 -10 -83 -31 -153 -38 -28 -3 -51 -11 -54 -19 -3 -9
-20 -14 -44 -14 -21 0 -39 -4 -39 -10 0 -5 -13 -10 -29 -10 -25 0 -31 -6 -41
-34 -15 -46 3 -76 45 -76 17 0 36 5 41 10 6 6 71 26 145 45 74 18 148 39 164
45 17 6 72 20 124 31 52 11 102 24 113 30 10 5 39 10 65 11 26 0 54 4 63 8 21
10 105 31 165 41 28 4 88 14 135 23 317 56 946 46 1235 -18 39 -9 96 -21 128
-27 31 -6 57 -15 57 -19 0 -5 17 -9 38 -8 21 0 52 -6 68 -15 16 -8 46 -17 66
-21 20 -4 50 -13 65 -21 15 -9 45 -18 65 -21 21 -4 49 -17 63 -30 15 -13 30
-24 36 -24 15 0 87 -39 132 -71 23 -17 60 -38 83 -48 53 -24 134 -101 134
-129 0 -27 -15 -36 -30 -17 -7 8 -19 15 -26 15 -8 0 -44 16 -81 35 -38 20 -86
38 -108 42 -22 3 -57 14 -77 24 -21 11 -50 19 -67 19 -17 0 -48 14 -77 35 -27
19 -56 38 -64 42 -135 59 -199 83 -220 83 -27 0 -81 18 -119 39 -13 7 -60 14
-105 15 -45 2 -90 8 -101 13 -44 23 -95 33 -169 33 -51 0 -87 5 -108 16 -21
11 -48 14 -87 11 -31 -2 -118 1 -194 6 -94 7 -141 7 -145 0 -4 -6 -20 -13 -37
-15 -148 -26 -255 -55 -255 -70 0 -5 -9 -8 -19 -8 -11 0 -22 -4 -25 -9 -3 -5
-24 -12 -46 -15 -22 -3 -59 -9 -81 -12 -30 -5 -44 -2 -50 7 -7 11 -10 9 -15
-7 -4 -14 -20 -26 -47 -35 -23 -7 -70 -28 -105 -46 -35 -18 -70 -33 -78 -33
-8 0 -22 -8 -33 -19 -10 -10 -29 -21 -42 -24 -59 -14 -102 -36 -134 -70 -19
-21 -40 -37 -46 -37 -15 0 -99 -59 -99 -70 0 -6 -6 -10 -13 -10 -7 0 -23 -9
-35 -20 -12 -11 -28 -20 -36 -20 -8 0 -18 -5 -21 -10 -4 -6 -22 19 -41 54 -19
36 -45 77 -59 92 -14 15 -25 31 -25 35 0 19 -65 66 -108 78 -87 24 -167 53
-200 72 -18 10 -48 19 -67 19 -38 0 -117 19 -185 45 -25 9 -74 21 -110 25 -36
5 -101 20 -144 35 -44 14 -116 31 -160 36 -45 5 -94 14 -111 19 -72 22 -253
35 -460 34 -231 -1 -300 -8 -322 -30 -8 -7 -28 -15 -46 -18 -18 -3 -63 -9
-100 -15 -38 -5 -75 -7 -83 -4 -20 7 -66 -6 -59 -17 3 -5 -7 -12 -22 -16 -47
-10 -157 -45 -173 -54 -47 -28 -126 -60 -145 -60 -13 0 -36 -10 -52 -23 -46
-37 -81 -57 -102 -57 -11 0 -26 -9 -33 -19 -8 -11 -27 -23 -43 -27 -17 -3 -39
-15 -50 -25 -11 -9 -32 -21 -47 -24 -16 -4 -28 -11 -28 -16 0 -5 -7 -9 -16 -9
-9 0 -18 -9 -21 -19 -3 -11 -18 -25 -33 -31 -16 -7 -31 -18 -34 -26 -3 -8 -13
-14 -23 -14 -10 0 -31 -16 -48 -35 -16 -19 -37 -35 -47 -35 -9 0 -25 -11 -36
-25 -11 -14 -23 -25 -27 -25 -3 0 -23 -16 -43 -35 -65 -62 -106 -95 -118 -95
-7 0 -15 -7 -18 -17 -6 -14 -20 -15 -114 -10 -59 4 -123 11 -142 17 -19 5 -84
10 -145 10 -96 0 -115 3 -150 23 -50 28 -69 82 -44 125 15 27 17 27 110 25
147 -4 393 23 490 53 46 14 98 29 114 34 17 4 47 15 69 24 21 9 49 16 62 16
13 0 27 6 31 14 4 7 33 24 63 37 30 12 67 31 82 41 14 10 33 18 42 18 8 0 23
9 33 19 10 11 30 22 46 26 15 4 31 13 35 20 4 7 43 32 87 55 100 53 146 81
163 97 7 7 20 13 29 13 9 0 39 13 67 29 28 16 87 41 131 56 44 15 92 33 107
41 15 8 43 14 63 14 19 0 35 3 35 8 0 8 80 28 165 43 28 4 73 13 100 20 35 9
136 13 326 12 284 0 289 -1 574 -53 33 -6 87 -16 120 -22 33 -5 76 -16 95 -23
67 -24 107 -35 126 -35 10 0 34 -9 52 -20 18 -11 45 -20 61 -20 16 0 31 -6 35
-15 3 -8 17 -15 31 -15 14 0 52 -13 85 -30 83 -42 140 -38 140 10 0 33 101
100 150 100 11 0 20 4 20 9 0 5 15 14 33 21 142 52 287 103 312 110 17 4 43
13 59 19 16 6 31 9 34 6 3 -2 11 0 18 6 8 6 43 14 79 17 36 2 65 8 65 12 0 11
104 36 225 55 61 9 119 18 130 22 66 18 541 25 760 10z m-3115 -343 c80 -9
190 -18 245 -22 55 -4 105 -11 112 -15 6 -4 31 -11 55 -16 24 -5 76 -23 117
-40 42 -18 91 -31 115 -31 37 0 79 -11 176 -45 19 -7 55 -18 80 -24 113 -29
151 -41 244 -75 127 -46 181 -86 225 -162 40 -70 46 -145 18 -234 -9 -30 -30
-100 -46 -156 -16 -55 -39 -122 -52 -149 -21 -45 -29 -51 -108 -88 -131 -60
-221 -104 -271 -132 -25 -13 -61 -25 -81 -25 -20 0 -62 -10 -95 -21 -58 -21
-89 -28 -206 -48 -31 -5 -62 -12 -67 -16 -23 -13 -130 -37 -221 -48 -59 -8
-233 -11 -460 -11 -559 2 -575 4 -705 48 -241 82 -406 152 -610 258 -156 81
-206 112 -313 191 -81 60 -70 93 66 205 37 30 81 68 97 85 27 27 142 109 229
161 17 10 58 36 91 56 132 82 242 134 360 170 22 7 67 27 100 45 76 41 143 62
223 69 85 8 239 43 287 67 50 24 184 25 395 3z m2945 -33 c55 -12 6 -25 -120
-32 -205 -10 -380 -75 -482 -176 -90 -90 -125 -185 -142 -386 -16 -186 -14
-226 15 -319 24 -74 34 -92 102 -167 81 -89 107 -105 227 -135 103 -26 105
-28 50 -42 -69 -17 -140 -16 -275 2 -63 8 -169 22 -235 30 -66 8 -145 18 -175
23 -30 5 -91 14 -135 21 -230 34 -268 43 -344 80 -43 21 -81 45 -85 55 -12 33
-5 92 25 190 16 55 36 125 45 155 8 30 22 69 31 87 17 32 161 170 217 208 147
100 275 169 337 182 18 3 47 16 65 28 41 28 282 105 330 105 12 0 42 9 67 20
50 22 196 66 242 73 47 6 207 5 240 -2z m176 -12 c30 -6 106 -17 169 -24 63
-8 149 -21 190 -29 41 -9 98 -20 125 -26 158 -31 237 -65 295 -125 45 -47 73
-61 135 -70 185 -25 399 -125 421 -198 3 -12 13 -29 21 -38 18 -22 63 -145 63
-176 0 -49 -32 -99 -108 -170 -42 -40 -90 -79 -107 -87 -68 -32 -213 -81 -320
-106 -44 -11 -102 -26 -130 -34 -27 -8 -72 -20 -100 -26 -27 -7 -61 -16 -74
-21 -13 -6 -96 -16 -185 -24 -152 -14 -176 -17 -236 -31 -58 -13 -130 -16
-130 -5 0 6 24 23 53 37 80 41 238 200 278 282 l32 66 -1 155 c0 137 -3 165
-24 226 -65 191 -210 347 -353 379 -30 7 -99 56 -79 56 6 0 36 -5 65 -11z
m-414 -175 c44 -33 44 -70 2 -119 -34 -39 -62 -44 -99 -18 -61 42 -68 96 -19
137 39 33 73 33 116 0z m418 -187 c55 -31 66 -66 37 -121 -22 -42 -88 -86
-128 -86 -50 0 -117 88 -112 147 3 34 8 41 48 61 56 28 104 28 155 -1z m-408
-199 c30 -28 29 -41 -8 -72 -37 -32 -56 -33 -86 -4 -30 28 -29 52 5 77 35 26
60 26 89 -1z m-7485 -4372 c29 -14 69 -34 88 -45 19 -10 47 -25 62 -32 15 -6
28 -21 30 -33 3 -18 9 -21 47 -18 49 4 92 -13 84 -34 -4 -10 4 -14 26 -14 18
0 49 -9 69 -19 20 -10 57 -24 82 -30 25 -6 70 -22 100 -36 59 -25 91 -38 102
-39 3 -1 10 -4 14 -8 4 -5 18 -8 31 -8 13 0 41 -9 61 -19 21 -11 56 -22 77
-26 22 -4 54 -13 70 -20 82 -37 133 -53 167 -53 20 0 52 -8 70 -17 33 -17 184
-51 353 -80 50 -8 112 -20 138 -25 27 -6 61 -10 77 -10 16 0 31 -4 34 -9 3 -4
47 -13 98 -20 118 -15 140 -18 213 -31 33 -6 100 -13 148 -15 48 -3 108 -11
133 -20 25 -8 61 -15 81 -15 49 0 201 -18 298 -36 44 -8 112 -14 150 -14 39 0
86 -4 105 -9 19 -5 82 -12 140 -15 110 -6 271 -19 450 -36 267 -25 521 -31
1065 -27 553 4 651 9 915 40 69 8 161 18 205 22 44 4 88 11 98 17 16 8 17 7 7
-11 -6 -13 -19 -20 -33 -18 -17 2 -22 -3 -22 -23 0 -20 -9 -29 -42 -44 -24
-10 -43 -22 -43 -27 0 -5 -16 -9 -35 -9 -19 0 -35 -4 -35 -9 0 -14 -59 -38
-125 -51 -33 -7 -78 -16 -100 -22 -159 -38 -406 -69 -550 -68 -55 0 -107 0
-115 0 -8 0 -40 -4 -70 -8 -75 -13 -414 -14 -775 -3 -466 14 -585 20 -605 31
-10 5 -63 10 -117 10 -54 0 -127 5 -163 11 -36 6 -94 13 -130 15 -36 3 -108 9
-160 14 -52 5 -135 10 -185 10 -49 1 -119 7 -155 15 -36 8 -121 19 -190 26
-69 6 -134 13 -145 16 -37 7 -129 23 -169 28 -21 3 -46 9 -55 14 -9 4 -46 11
-82 14 -36 3 -81 12 -100 20 -67 28 -135 49 -189 58 -30 6 -77 21 -104 34 -28
14 -58 25 -69 25 -28 0 -117 31 -117 41 0 5 -8 9 -17 9 -23 0 -120 37 -147 56
-11 8 -30 14 -41 14 -11 0 -33 7 -49 15 -15 8 -33 15 -40 15 -6 0 -66 27 -134
60 -67 33 -128 60 -136 60 -7 0 -24 8 -37 18 -13 10 -64 38 -114 63 -49 24
-92 46 -95 50 -3 3 -42 25 -88 47 -46 23 -104 56 -130 74 -26 18 -58 39 -72
46 -54 26 -81 48 -93 72 -8 16 -23 26 -40 28 -15 2 -27 9 -27 18 0 8 -8 14
-17 14 -10 0 -25 5 -33 11 -30 20 48 1 102 -25z"/>
<path d="M4570 6350 c-206 -45 -322 -100 -404 -191 -77 -86 -109 -179 -126
-376 -15 -185 -13 -222 19 -318 16 -47 35 -92 43 -98 8 -7 38 -40 67 -74 55
-65 93 -88 193 -116 110 -31 190 -39 333 -31 180 9 311 43 400 104 72 50 195
189 228 259 30 64 31 67 30 220 -1 143 -3 162 -28 230 -58 159 -168 293 -282
342 -117 51 -159 59 -302 58 -75 -1 -152 -5 -171 -9z m-18 -157 c33 -31 35
-56 8 -100 -37 -62 -76 -65 -130 -12 -39 39 -40 81 -4 114 37 35 89 34 126 -2z
m403 -176 c48 -27 71 -64 62 -99 -11 -42 -54 -85 -102 -101 -42 -15 -46 -14
-77 6 -51 35 -79 84 -76 132 3 38 5 41 58 62 69 28 85 28 135 0z m-382 -222
c9 -21 -1 -41 -28 -59 -36 -24 -72 -20 -91 9 -22 33 -15 54 25 76 30 16 37 16
61 4 15 -8 30 -21 33 -30z"/>
<path d="M5958 7413 c7 -3 16 -2 19 1 4 3 -2 6 -13 5 -11 0 -14 -3 -6 -6z"/>
<path d="M5745 4703 c-41 -7 -95 -26 -95 -34 0 -4 -21 -17 -47 -29 -27 -12
-56 -26 -65 -31 -10 -5 -24 -9 -32 -9 -7 0 -27 -7 -42 -15 -16 -8 -41 -15 -56
-15 -15 0 -33 -7 -41 -15 -8 -7 -28 -17 -43 -21 -16 -4 -36 -12 -44 -19 -8 -7
-46 -24 -85 -39 -67 -26 -109 -44 -184 -80 -19 -9 -57 -17 -85 -17 -43 -1 -46
-2 -21 -9 l30 -7 -40 -7 c-61 -12 -75 -17 -75 -27 0 -5 -9 -9 -19 -9 -11 0
-36 -9 -58 -19 -21 -11 -81 -33 -134 -50 -142 -45 -168 -58 -174 -84 -10 -37
11 -77 39 -77 14 0 27 4 30 9 4 5 32 17 64 27 31 9 61 21 67 26 5 4 18 8 30 8
11 0 29 7 39 15 11 8 28 15 38 15 10 0 57 15 105 33 133 51 156 59 186 64 15
3 27 8 27 12 0 7 55 34 178 88 18 8 40 12 48 9 8 -3 14 -2 14 2 0 11 99 60
136 67 18 3 40 15 50 26 9 10 25 19 35 19 10 0 24 6 31 13 7 8 28 16 45 20 18
4 66 23 107 43 63 31 76 42 82 67 7 34 -10 56 -41 50z"/>
<path d="M7333 2773 c9 -2 25 -2 35 0 9 3 1 5 -18 5 -19 0 -27 -2 -17 -5z"/>
<path d="M2057 2243 c-22 -22 12 -145 67 -243 14 -25 33 -60 42 -78 18 -35 93
-107 162 -154 53 -36 184 -98 208 -98 18 0 31 -3 137 -36 53 -16 63 -16 100
-3 34 11 43 19 45 41 3 23 -2 30 -25 38 -15 6 -35 13 -43 17 -8 3 -31 7 -50 9
-148 12 -416 158 -435 236 -4 16 -13 31 -20 35 -18 10 -84 139 -90 175 -9 48
-27 68 -61 68 -17 0 -34 -3 -37 -7z"/>
</g>
</svg>
